# xmcd
#
# Track frame offsets:
#	150
#	18583
#	36391
#	49148
#	65420
#	82705
#	96177
#	111614
#	129369
#	147945
#	165825
#	178741
#
# Disc length: 2604 seconds
#
# Revision: 1
# Processed by: cddbd v1.4PL0 Copyright (c) Steve Scherf et al.
# Submitted via: EasyCDDAExtractor 6.0.0.1
#
DISCID=9e0a2a0c
DTITLE=Trisha Yearwood - Songbook: A Collection Of Hits
DYEAR=1997
DGENRE=Country
TTITLE0=How Do I Live
TTITLE1=The Song Remembers When
TTITLE2=Wrong Side Of Memphis
TTITLE3=In Anothers Eyes
TTITLE4=The Woman Before Me
TTITLE5=Perfect Love
TTITLE6=Thinkin' About You
TTITLE7=Down On My Knees
TTITLE8=She's In Love With The Boy
TTITLE9=Walk Away Joe
TTITLE10=XXX's and OOO's (An American Girl)
TTITLE11=Like We Never Had A Broken Heart
EXTD=
EXTT0=
EXTT1=
EXTT2=
EXTT3=
EXTT4=
EXTT5=
EXTT6=
EXTT7=
EXTT8=
EXTT9=
EXTT10=
EXTT11=
PLAYORDER=
